<?xml version="1.0" encoding="UTF-8"?><svg id="a" xmlns="http://www.w3.org/2000/svg" viewBox="0 0 300 300"><defs><style>.b{fill:#3d728f;}</style></defs><path class="b" d="M232.6,293.55c-8.73,0-17.04-5.13-20.67-13.7L111.2,41.71c-4.83-11.4,.52-24.55,11.92-29.38,11.4-4.83,24.55,.52,29.38,11.92l100.73,238.14c4.83,11.4-.52,24.55-11.92,29.38-2.84,1.2-5.8,1.78-8.72,1.78Z"/><path class="b" d="M70.4,171.76c-2.92,0-5.88-.58-8.73-1.78-11.4-4.83-16.73-17.98-11.92-29.38l20.67-48.85c4.83-11.4,17.98-16.75,29.38-11.92,11.4,4.83,16.73,17.98,11.92,29.38l-20.67,48.85c-3.61,8.56-11.92,13.7-20.65,13.7Z"/><circle class="b" cx="127.28" cy="154.09" r="16.81" transform="translate(-35.44 270.13) rotate(-85.93)"/></svg>