<svg xmlns="http://www.w3.org/2000/svg" width="360" height="149" viewBox="0 0 360 149">
  <g id="Groupe_1" data-name="Groupe 1" transform="translate(-316 -247)">
    <rect id="Rectangle_1" data-name="Rectangle 1" width="360" height="149" transform="translate(316 247)" fill="#e6ecef"/>
    <g id="laptop-code-duotone" transform="translate(438.986 275.889)">
      <path id="Tracé_1" data-name="Tracé 1" d="M146.67,0H72.552A8.57,8.57,0,0,0,64,8.552V68.416h91.222V8.552A8.57,8.57,0,0,0,146.67,0Zm-2.851,57.014H75.4V11.4h68.416Z" transform="translate(-52.597)" fill="#3d728f" opacity="0.4"/>
      <path id="Tracé_2" data-name="Tracé 2" d="M111.177,126.715H67.971a5.611,5.611,0,0,1-5.826,5.7H51.312a6.065,6.065,0,0,1-5.844-5.7H2.851A2.851,2.851,0,0,0,0,129.566v2.851a11.438,11.438,0,0,0,11.4,11.4h91.222a11.438,11.438,0,0,0,11.4-11.4v-2.851A2.851,2.851,0,0,0,111.177,126.715ZM91.222,64H22.805v45.611H91.222ZM51.491,97.193l-2.013,2.013a2.851,2.851,0,0,1-4.027,0L35.046,88.819a2.851,2.851,0,0,1,0-4.027l10.387-10.4a2.851,2.851,0,0,1,4.027,0l2.031,2.031a2.851,2.851,0,0,1,0,4.027L45.13,86.805l6.361,6.361A2.851,2.851,0,0,1,51.491,97.193ZM79,88.819,68.595,99.224a2.851,2.851,0,0,1-4.027,0L62.537,97.21a2.851,2.851,0,0,1,0-4.027l6.378-6.378-6.378-6.361a2.851,2.851,0,0,1,0-4.027l2.013-2.013a2.851,2.851,0,0,1,4.027,0L78.964,84.792a2.851,2.851,0,0,1,0,4.027Z" transform="translate(0 -52.597)" fill="#3d728f"/>
    </g>
  </g>
</svg>
